<svg xmlns="http://www.w3.org/2000/svg" viewBox="0 0 820 620" role="img" aria-label="Training portal illustration">
  <defs>
    <linearGradient id="a" x1="0" x2="1" y1="0" y2="1"><stop stop-color="#73e2ff"/><stop offset="1" stop-color="#8d7bff"/></linearGradient>
    <linearGradient id="b" x1="0" x2="1"><stop stop-color="#ffffff" stop-opacity=".18"/><stop offset="1" stop-color="#ffffff" stop-opacity=".04"/></linearGradient>
    <filter id="s" x="-20%" y="-20%" width="140%" height="140%"><feDropShadow dx="0" dy="24" stdDeviation="24" flood-color="#000" flood-opacity=".35"/></filter>
  </defs>
  <rect width="820" height="620" rx="46" fill="#0b1428"/>
  <circle cx="670" cy="90" r="160" fill="#73e2ff" opacity=".16"/>
  <circle cx="130" cy="530" r="190" fill="#8d7bff" opacity=".16"/>
  <g filter="url(#s)">
    <rect x="82" y="76" width="656" height="418" rx="34" fill="url(#b)" stroke="#fff" stroke-opacity=".2"/>
    <rect x="116" y="118" width="588" height="62" rx="18" fill="#111d38" stroke="#fff" stroke-opacity=".16"/>
    <circle cx="150" cy="149" r="12" fill="#ff6b6b"/><circle cx="186" cy="149" r="12" fill="#ffd166"/><circle cx="222" cy="149" r="12" fill="#70e7a5"/>
    <rect x="120" y="216" width="180" height="208" rx="28" fill="#111d38" stroke="#fff" stroke-opacity=".16"/>
    <rect x="334" y="216" width="180" height="208" rx="28" fill="#111d38" stroke="#fff" stroke-opacity=".16"/>
    <rect x="548" y="216" width="120" height="208" rx="28" fill="#111d38" stroke="#fff" stroke-opacity=".16"/>
    <circle cx="210" cy="280" r="38" fill="url(#a)"/><path d="M191 283l15 15 29-42" fill="none" stroke="#07101d" stroke-width="10" stroke-linecap="round" stroke-linejoin="round"/>
    <rect x="154" y="340" width="112" height="16" rx="8" fill="#fff" opacity=".7"/><rect x="154" y="374" width="88" height="14" rx="7" fill="#73e2ff" opacity=".75"/>
    <circle cx="424" cy="280" r="38" fill="url(#a)"/><path d="M408 280h32M424 264v32" stroke="#07101d" stroke-width="10" stroke-linecap="round"/>
    <rect x="368" y="340" width="112" height="16" rx="8" fill="#fff" opacity=".7"/><rect x="368" y="374" width="88" height="14" rx="7" fill="#8d7bff" opacity=".75"/>
    <circle cx="608" cy="280" r="38" fill="url(#a)"/><path d="M590 280l14 14 28-34" fill="none" stroke="#07101d" stroke-width="10" stroke-linecap="round" stroke-linejoin="round"/>
    <rect x="578" y="340" width="62" height="16" rx="8" fill="#fff" opacity=".7"/><rect x="578" y="374" width="48" height="14" rx="7" fill="#73e2ff" opacity=".75"/>
  </g>
  <g opacity=".95">
    <rect x="150" y="470" width="520" height="74" rx="28" fill="url(#a)"/>
    <text x="410" y="517" text-anchor="middle" font-family="Arial, sans-serif" font-size="28" font-weight="800" fill="#07101d">Learn • Practice • Certify</text>
  </g>
</svg>
